# xmcd
# 
# Track frame offsets:
#     150
#     21057
#     45334
#     71655
# 
# Disc length: 1293
# 
# Revision: 0
# Processed by: cddbd v1.5.2PL0 Copyright (c) Steve Scherf et al.
# Submitted via: fre:ac v1.0.17
# 
DISCID=29050b04
DTITLE=Fashion Magazine - Rewrite History
DYEAR=2004
DGENRE=Indie
TTITLE0=Rewrite History
TTITLE1=Skyline
TTITLE2=Darkness Rising
TTITLE3=Timecode
EXTD=
EXTT0=
EXTT1=
EXTT2=
EXTT3=
PLAYORDER=
